<svg width="512" height="512" viewBox="0 0 512 512" fill="none" xmlns="http://www.w3.org/2000/svg">
<path d="M336 64C345.928 63.9092 355.856 63.836 365.784 63.7927C370.396 63.772 375.007 63.7439 379.619 63.6982C384.08 63.6544 388.54 63.6308 393.002 63.6205C394.693 63.6132 396.384 63.5989 398.074 63.5771C418.013 63.3305 433.706 68.2541 448.523 82.3242C458.374 92.9671 464.374 106.634 464.227 121.16C464.227 121.932 464.228 122.704 464.228 123.499C464.227 126.02 464.211 128.541 464.195 131.062C464.192 132.822 464.189 134.582 464.187 136.342C464.179 140.951 464.16 145.561 464.137 150.171C464.117 154.883 464.108 159.596 464.098 164.309C464.076 173.539 464.041 182.77 464 192C458.72 192 453.44 192 448 192C447.98 189.998 447.96 187.995 447.94 185.932C447.873 179.279 447.795 172.625 447.712 165.972C447.663 161.942 447.616 157.912 447.578 153.883C447.541 149.986 447.495 146.089 447.442 142.192C447.424 140.713 447.408 139.235 447.397 137.756C447.261 121.249 445.495 106.345 433.562 93.9375C420.093 81.653 405.86 80.8849 388.344 80.6836C386.831 80.663 385.317 80.642 383.804 80.6206C379.846 80.5657 375.887 80.5162 371.928 80.4678C367.879 80.4173 363.83 80.3617 359.781 80.3066C351.854 80.1995 343.927 80.0984 336 80C336 74.72 336 69.44 336 64Z" fill="black"/>
<path d="M448 320C453.28 320 458.56 320 464 320C464.091 330.076 464.164 340.151 464.207 350.227C464.228 354.907 464.256 359.587 464.302 364.267C464.346 368.793 464.369 373.318 464.38 377.844C464.387 379.561 464.401 381.278 464.423 382.995C464.652 401.832 460.196 417.382 446.902 431.355C435.489 441.755 421.829 448.192 406.272 448.114C405.13 448.114 405.13 448.114 403.965 448.114C401.459 448.113 398.954 448.106 396.449 448.098C394.708 448.096 392.966 448.094 391.224 448.093C386.649 448.09 382.074 448.08 377.499 448.069C372.827 448.058 368.155 448.054 363.482 448.049C354.322 448.038 345.161 448.021 336 448C336 442.72 336 437.44 336 432C337.997 431.98 339.994 431.96 342.052 431.94C348.693 431.873 355.335 431.795 361.977 431.712C365.998 431.663 370.02 431.616 374.042 431.578C377.932 431.541 381.823 431.494 385.713 431.442C387.188 431.424 388.663 431.408 390.138 431.397C407.448 431.254 420.79 429.669 433.742 417.387C446.208 404.21 447.118 389.604 447.316 372.344C447.337 370.831 447.358 369.317 447.379 367.804C447.434 363.846 447.484 359.887 447.532 355.928C447.583 351.879 447.638 347.83 447.693 343.781C447.801 335.854 447.902 327.927 448 320Z" fill="black"/>
<path d="M48 320C53.28 320 58.56 320 64 320C64.0198 321.997 64.0396 323.994 64.0601 326.052C64.1273 332.693 64.205 339.335 64.2875 345.977C64.3372 349.998 64.3835 354.02 64.4219 358.042C64.4591 361.932 64.5055 365.823 64.5581 369.713C64.5764 371.188 64.5916 372.663 64.6033 374.138C64.7423 390.992 66.2535 405.289 78.4375 418C91.8409 430.383 106.144 431.115 123.656 431.316C125.169 431.337 126.683 431.358 128.196 431.379C132.154 431.434 136.113 431.484 140.072 431.532C144.121 431.583 148.17 431.638 152.219 431.693C160.146 431.801 168.073 431.902 176 432C176 437.28 176 442.56 176 448C166.072 448.091 156.144 448.164 146.216 448.207C141.604 448.228 136.993 448.256 132.381 448.302C127.92 448.346 123.46 448.369 118.998 448.38C117.307 448.387 115.616 448.401 113.926 448.423C93.9871 448.67 78.294 443.746 63.4766 429.676C53.626 419.033 47.6258 405.366 47.773 390.84C47.7725 389.682 47.7725 389.682 47.7721 388.501C47.7734 385.98 47.7889 383.459 47.8047 380.938C47.8084 379.178 47.8113 377.418 47.8133 375.658C47.8209 371.049 47.8405 366.439 47.8627 361.829C47.8832 357.117 47.8923 352.404 47.9023 347.691C47.9237 338.461 47.9589 329.23 48 320Z" fill="black"/>
<path d="M105.728 63.8865C106.87 63.8863 106.87 63.8863 108.035 63.886C110.541 63.8867 113.046 63.8945 115.551 63.9024C117.292 63.9042 119.034 63.9056 120.776 63.9066C125.351 63.9105 129.926 63.9203 134.501 63.9313C139.173 63.9416 143.845 63.9461 148.518 63.9512C157.678 63.9619 166.839 63.9795 176 64C176 69.28 176 74.56 176 80C174.003 80.0198 172.006 80.0396 169.948 80.0601C163.307 80.1274 156.665 80.205 150.023 80.2875C146.002 80.3372 141.98 80.3835 137.958 80.4219C134.068 80.4591 130.177 80.5056 126.287 80.5581C124.812 80.5764 123.337 80.5916 121.862 80.6034C104.552 80.746 91.2096 82.3314 78.2578 94.6133C65.7925 107.79 64.882 122.396 64.6836 139.656C64.663 141.169 64.642 142.683 64.6206 144.196C64.5657 148.154 64.5162 152.113 64.4678 156.072C64.4173 160.121 64.3617 164.17 64.3066 168.219C64.1995 176.146 64.0984 184.073 64 192C58.72 192 53.44 192 48 192C47.9092 181.924 47.836 171.849 47.7927 161.773C47.772 157.093 47.7438 152.413 47.6982 147.733C47.6544 143.207 47.6308 138.682 47.6205 134.156C47.6132 132.439 47.5989 130.722 47.5771 129.005C47.3479 110.168 51.8043 94.6176 65.0977 80.6445C76.5108 70.2452 90.1714 63.8079 105.728 63.8865Z" fill="black"/>
</svg>
